<svg id="Layer_1" data-name="Layer 1" xmlns="http://www.w3.org/2000/svg" viewBox="0 0 500 500"><defs><style>.cls-1{fill:#de1212;}</style></defs><title>duration</title><path class="cls-1" d="M250.82,473C128.36,472.74,28.58,372.79,29,250.77,29.37,128.27,129,28.79,251.12,29,373.54,29.21,473.37,129.21,473,251.22,472.57,373.73,372.87,473.26,250.82,473ZM78.31,251A172.67,172.67,0,1,0,251,78.33,172.4,172.4,0,0,0,78.31,251Z"/><path class="cls-1" d="M279.08,237.91c.83-.48,1.41-.79,2-1.13l51-31.13a24.56,24.56,0,0,1,37.48,17.84c1.27,10.3-2.75,18.61-11.62,24.09C331,264.22,304,280.7,277.08,297.24c-3.28,2-6.54,4.07-9.85,6a24.62,24.62,0,0,1-37.09-16.95,30.35,30.35,0,0,1-.38-5.22q0-84,0-168c0-12.72,8.06-22.63,20.3-25,14.33-2.83,28.5,8.41,29,23,0,.77,0,1.55,0,2.32V237.91Z"/></svg>