<svg id="Layer_1" data-name="Layer 1" xmlns="http://www.w3.org/2000/svg" viewBox="0 0 500 500"><defs><style>.cls-1{fill:#2d2d2d;}.cls-2{fill:none;stroke:#2d2d2d;stroke-miterlimit:10;stroke-width:20px;}</style></defs><title>menu_pd</title><path class="cls-1" d="M123.51,156c9.07-9.94,17.74-19.62,26.72-29,1.08-1.13,4.45-1.49,5.83-.67,30.14,18,59.57,14.51,89.61-2.32,20.34,15.07,44.06,16.37,68.52,11.34,6.52-1.34,12.41-5.58,18.81-7.89,2.25-.81,6.22-.86,7.61.53,8.81,8.83,17.12,18.16,25.94,27.69.5-.56,0,.3-.75.79-28.32,18.7-30.61,59.94-14.47,85.51A129.92,129.92,0,0,1,367,278.82c5.42,21.29-1.95,40.48-15.78,56.74-26.73,31.44-61.14,51-100.5,62.14a21.65,21.65,0,0,1-11.24-.13c-35.89-10.27-68.12-27.35-94.27-54.27-28.93-29.78-31.66-63.18-8.55-98.7,10.91-16.77,14.68-34.44,10.5-53.88A54.65,54.65,0,0,0,123.51,156ZM245,175.68c-7.71,15.4-14.42,29.33-21.72,42.94a12.45,12.45,0,0,1-7.82,5.51c-13.61,2.47-27.35,4.25-42.77,6.54,10.8,10.67,20.6,19.9,29.78,29.71a16.2,16.2,0,0,1,4.11,10.45c-.42,14.73-1.68,29.43-2.7,45.28,12.08-6,23.51-11.41,34.68-17.32,4.46-2.36,8-2.67,12.65-.16,11.12,6,22.61,11.39,35,17.53-1-14-1.42-26.92-2.94-39.7-1-8.38,1.27-14.38,7.6-20,8.88-7.84,17-16.59,26.32-25.87-15.26-2.25-28.89-4-42.38-6.47a13.43,13.43,0,0,1-8.26-6C259.27,204.75,252.67,191,245,175.68Z"/><rect class="cls-2" x="49" y="49" width="402" height="402"/></svg>