<svg id="Layer_1" data-name="Layer 1" xmlns="http://www.w3.org/2000/svg" viewBox="0 0 500 500"><defs><style>.cls-1{fill:#fdfefe;}</style></defs><title>twitter</title><path class="cls-1" d="M472,127.28c-9.24,15-21.57,27.22-35.43,37.78-5.55,4.23-7.26,8.59-7.23,15.38.5,107.56-66.82,204.91-167.8,239.43-75.52,25.81-149,18.88-218.91-20.79-1.53-.87-3.4-1.38-4.63-4a182.74,182.74,0,0,0,67.8-5.74,175.63,175.63,0,0,0,62.08-30.94c-12.25-1.26-22.7-3.14-32.57-7.36-21.54-9.21-37.34-24.37-47.24-45.59-3.66-7.86-3.24-8.43,5.16-7.92,9.58.58,19.1.52,28.71-2-1.89-2.88-5-2.57-7.41-3.38-33.7-11.23-58.43-41.7-61.2-75.64-.75-9.24-.66-9.31,7.58-5.82,10.54,4.46,22.5,7.05,31.33,6.52C68,199.05,54.65,175.56,53.72,145.81A81.5,81.5,0,0,1,66,99.7a273.5,273.5,0,0,0,43.76,41.38c38.92,29,82.65,45.4,130.81,50.33,1.81.19,3.67.06,5.47.31,4.07.55,5.19-1,4.51-5C241.05,129.82,286.64,81,343.12,83.32c21.8.88,41,8.67,57.12,23.5,3.61,3.34,6.75,4.24,11.58,3a203.1,203.1,0,0,0,42.35-15.62c1.93-1,3.63-2.78,6.15-2.35-1.39,12.14-10.93,24.78-33.94,46.49,4.9-.93,9.84-1.73,14.7-2.84q7.67-1.77,15.22-4.06c5-1.51,10-3.3,14.94-5C471.48,126.77,471.74,127,472,127.28Z"/><path class="cls-1" d="M440.54,163.51h1.12c-.19.19-.38.38-.56.58C440.9,163.9,440.72,163.71,440.54,163.51Z"/></svg>