<svg id="Layer_1" data-name="Layer 1" xmlns="http://www.w3.org/2000/svg" viewBox="0 0 500 500"><defs><style>.cls-1{fill:#fff;}</style></defs><title>twitch</title><path class="cls-1" d="M204,462.25H149v-55.4c-3.58-.23-6.8-.59-10-.6q-45.72-.24-91.46-.38V112.7a66.66,66.66,0,0,0,3.07-6.16C58.15,86.6,65.84,66.7,73,46.61c1.9-5.34,4.38-7,10-7q180.3.27,360.6.14h7.7c.17,2,.35,3.12.35,4.26q0,123.95-.17,247.91c0,3-2.12,6.57-4.33,8.8q-50.1,50.49-100.67,100.52A18.54,18.54,0,0,1,335,406c-19.71.47-39.47.93-59.14,0-12.07-.6-20.64,3-28.7,12C233.37,433.28,218.42,447.54,204,462.25Zm-9.74-66.44,2.1.45c2-1.89,4.09-3.73,6.05-5.68,14.47-14.43,28.77-29,43.49-43.17a16.59,16.59,0,0,1,10.32-4.26c29.58-.33,59.16,0,88.75-.38a16.47,16.47,0,0,0,10.3-4.24q28.28-27.5,55.8-55.76a17.31,17.31,0,0,0,4.46-10.91c.26-62.46.06-124.92.37-187.37,0-7.29-2-8.91-9-8.89q-143,.34-286,.15h-8.53V343h8.92c22.07,0,44.14.15,66.21-.11,5.24-.06,7,1.52,6.87,6.79-.32,11.5-.09,23-.09,34.52Z"/><path class="cls-1" d="M315.2,259.19c-.14-3.11-.33-5.4-.33-7.68,0-31.41.13-62.82-.16-94.22,0-6,1.75-7.77,7.55-7.42,7.71.45,15.47.2,23.2.08,3.57-.06,5,1.3,5,4.94q-.12,49.58,0,99.15c0,3.4-.89,5.25-4.71,5.2C335.89,259.1,326.06,259.19,315.2,259.19Z"/><path class="cls-1" d="M249.18,205c0,15.73-.21,31.45.11,47.17.12,5.67-1.92,7.39-7.35,7.11-7.25-.36-14.55-.25-21.81,0-4.33.13-6.37-1-6.35-5.86q.22-48.93,0-97.86c0-4.34,1.64-5.76,5.82-5.64,7.74.21,15.5.3,23.23,0,5-.21,6.48,1.77,6.42,6.57C249.05,172.65,249.18,188.84,249.18,205Z"/></svg>