<svg id="Layer_1" data-name="Layer 1" xmlns="http://www.w3.org/2000/svg" viewBox="0 0 200 200"><defs><style>.cls-1{fill:#dc143c;}</style></defs><title>cone</title><path class="cls-1" d="M10,135.64c1.1-3.58,3.86-5.48,7.08-6.8,9.67-4,19.37-7.84,29.06-11.75l5.61-2.26,1.09-.42L52,116.87c-.88,2.47-1.7,5-2.69,7.41a5.71,5.71,0,0,0-.05,4,14.64,14.64,0,0,0,5,6.89c4.22,3.53,9.16,5.7,14.33,7.41A93.78,93.78,0,0,0,91,146.87a114.35,114.35,0,0,0,23.9-.6c8.93-1.19,17.62-3.23,25.62-7.56a23.16,23.16,0,0,0,8.74-7.39,14.19,14.19,0,0,0,1.35-2.7,5.92,5.92,0,0,0,0-4.53c-1.23-3.12-2.29-6.31-3.47-9.61.34.1.56.13.77.22l34.34,13.84c.48.2.95.41,1.42.64,2.89,1.38,5.32,3.22,6.33,6.46v2a9.85,9.85,0,0,1-3.81,5.34,27.37,27.37,0,0,1-3.17,2c-21.35,11.47-42.75,22.88-64.06,34.42a39,39,0,0,1-18.82,4.73,38.39,38.39,0,0,1-18.93-4.65c-12-6.54-24-12.92-36-19.36-9.69-5.21-19.4-10.39-29.08-15.63-2.83-1.54-5.16-3.61-6.1-6.86Z"/><path class="cls-1" d="M68.25,72.39c2.36,4.79,6.68,7,11.29,8.67a60.06,60.06,0,0,0,23.75,3.25A56.06,56.06,0,0,0,121,80.91a26.61,26.61,0,0,0,7-3.79,12.08,12.08,0,0,0,3.82-4.8c.18.42.3.69.39,1q4.93,13.8,9.85,27.62a3.68,3.68,0,0,1,.07,1.95,11.6,11.6,0,0,1-4,6.11,34.61,34.61,0,0,1-12.56,6.63,85.24,85.24,0,0,1-30.45,3.58A79.17,79.17,0,0,1,75.73,116c-5-1.54-9.84-3.54-13.85-7.08a11.64,11.64,0,0,1-4-6.32,2.84,2.84,0,0,1,.07-1.42q5-14.09,10-28.15C68.05,72.81,68.14,72.63,68.25,72.39Z"/><path class="cls-1" d="M99.15,56.46A40.59,40.59,0,0,1,83,53.15a14.5,14.5,0,0,1-5.75-4.29,1.41,1.41,0,0,1-.22-1.5q4.53-12.63,9-25.29a7.82,7.82,0,0,1,4.6-4.71,23.18,23.18,0,0,1,18.37-.13,8.57,8.57,0,0,1,5.13,5.5C117,30.94,120,39.09,122.9,47.25a1.6,1.6,0,0,1-.29,1.74,15.83,15.83,0,0,1-6.55,4.57A44.07,44.07,0,0,1,99.15,56.46Z"/></svg>