<svg id="Layer_1" data-name="Layer 1" xmlns="http://www.w3.org/2000/svg" viewBox="0 0 500 500"><defs><style>.cls-1{fill:#2d2d2d;}.cls-2{fill:none;stroke:#2d2d2d;stroke-miterlimit:10;stroke-width:20px;}</style></defs><title>menu_pbm</title><path class="cls-1" d="M314.61,375.38c-2.08,4.69-6.49,4.91-11,3.61-43.23-12.46-83.88-30.66-119.18-58.7-28.06-22.29-52.68-48-65.48-82.79-10.83-29.41-6-57.56,17-76.16,20-16.2,42.78-16.81,66.36-9.55,11.22,3.46,21.75,8.4,31,15.79,2.94,2.34,6,2.08,8.41-1,3-3.74,6.05-7.44,8.82-11.33,18.79-26.33,44.32-37.22,75.74-30.21,24.28,5.41,42.11,23.28,49.9,48.1,4.64,14.76,5.07,30,3.62,45-1.1,11.32-2.33,23.11-9.21,33.27-4.72-1.35-8.79-2.43-12.79-3.69-3.26-1-4.4-3.6-4.58-6.78-.25-4.58,1-8.9,1.91-13.35,4.13-21.2,1.4-41.51-11.73-59-12.82-17.1-38.58-20.44-55.6-2.63-11.49,12-17.15,26.57-23.22,41.22-5.34,12.89-14.09,16-25.94,8.72a58.38,58.38,0,0,1-10.46-8.57c-10.81-10.87-22.79-20.56-37.24-25.41-12.8-4.29-26.29-4.37-37.46,5.89-10.3,9.45-13.47,21-10.84,34.62,5.49,28.49,22.31,50.16,42,70C208.8,317,237.14,335.6,268.18,350.1c12.22,5.71,24.54,11.35,37.47,15.4a9.26,9.26,0,0,1,2.91,1.25C311.48,369,317,369.93,314.61,375.38Zm73.17-55.83c-2.89,17.49-21.88,35-39.7,36.32-33.85,2.47-56.73-18-59.08-52-1.11-16-6.95-30.89-14-45.23-1.25-2.53-2.25-5.19-3.4-7.89,4.61-2,7.58,1.15,11,2.12,18.19,5.23,36.73,9.39,55.65,8.11C365.82,259.14,393.14,287,387.78,319.55Z"/><rect class="cls-2" x="50" y="50" width="402" height="402"/></svg>