<svg id="Layer_1" data-name="Layer 1" xmlns="http://www.w3.org/2000/svg" viewBox="0 0 500 500"><defs><style>.cls-1{fill:#19171c;}.cls-2{fill:#e01212;}.cls-3{fill:#de1212;}</style></defs><title>viewers</title><path class="cls-1" d="M247.34,490.32c57.32,0,114.65-.55,172,.24,28.51.39,41.13-12,40.47-40.38-.74-32.38-1.15-64.84.17-97.18,1.05-25.74-11.47-39.5-34.3-46.38C309.16,271.53,192.58,271.63,76,306c-24.34,7.17-37.32,21.79-35.88,49.15,1.63,31.06,1.24,62.31.15,93.43-1.07,30.5,12.55,42.66,42.61,42.1C137.66,489.6,192.51,490.34,247.34,490.32ZM247,220.74c56.4,1.79,105.92-45,107.68-101.62C356.45,62.7,309.71,13.21,253,11.45,196.51,9.71,147.33,56.16,145.41,113.1,143.52,169.41,190.26,218.94,247,220.74Z"/><path class="cls-2" d="M247.34,490.33c-54.83,0-109.68-.73-164.49.3-30.06.56-43.68-11.6-42.61-42.1,1.09-31.12,1.48-62.37-.15-93.43C38.65,327.74,51.63,313.12,76,306c116.61-34.32,233.19-34.42,349.67.67,22.83,6.88,35.35,20.64,34.3,46.38-1.32,32.34-.91,64.8-.17,97.18.66,28.37-12,40.77-40.47,40.38C362,489.77,304.66,490.32,247.34,490.33Z"/><path class="cls-3" d="M247,220.74c-56.75-1.8-103.49-51.33-101.6-107.64C147.33,56.16,196.51,9.71,253,11.45c56.68,1.76,103.42,51.25,101.66,107.67C352.93,175.79,303.41,222.53,247,220.74Z"/></svg>